<?xml version="1.0" encoding="utf-8"?>
<!-- Generator: Adobe Illustrator 24.0.3, SVG Export Plug-In . SVG Version: 6.00 Build 0)  -->
<svg version="1.1" id="Layer_1" xmlns="http://www.w3.org/2000/svg" xmlns:xlink="http://www.w3.org/1999/xlink" x="0px" y="0px"
	 viewBox="0 0 512 512" style="enable-background:new 0 0 512 512;" xml:space="preserve">
<g>
	<g>
		<path d="M493.3,159.7c-12.5-30.9-31.2-59.8-56.2-84.8c-25-25-53.9-43.7-84.8-56.2C321.4,6.2,288.6,0,255.8,0
			c-32.7,0-65.5,6.2-96.3,18.7C128.7,31.2,99.8,50,74.9,74.9C50,99.8,31.2,128.7,18.7,159.5C6.2,190.3,0,223.1,0,255.8
			c0,32.8,6.2,65.6,18.7,96.5c12.5,30.9,31.2,59.8,56.2,84.8c25,25,53.9,43.7,84.8,56.2c30.9,12.5,63.7,18.7,96.5,18.7
			c32.7,0,65.5-6.2,96.3-18.7c30.8-12.5,59.7-31.2,84.6-56.2c24.9-24.9,43.7-53.8,56.2-84.6c12.5-30.8,18.7-63.6,18.7-96.3
			C512,223.4,505.8,190.6,493.3,159.7z M461.6,339.7c-10.8,26.7-27,51.6-48.7,73.3c-21.6,21.6-46.6,37.8-73.3,48.7
			c-26.7,10.8-55.1,16.2-83.5,16.2c-28.5,0-56.9-5.4-83.7-16.2c-26.7-10.8-51.8-27-73.4-48.7c-21.7-21.7-37.9-46.7-48.7-73.4
			c-10.8-26.7-16.2-55.2-16.2-83.7c0-28.4,5.4-56.8,16.2-83.5c10.8-26.7,27-51.6,48.7-73.3c21.6-21.6,46.6-37.8,73.3-48.7
			c26.7-10.8,55.1-16.2,83.5-16.2c28.5,0,56.9,5.4,83.7,16.2c26.7,10.8,51.8,27,73.4,48.7c21.7,21.7,37.9,46.7,48.7,73.4
			c10.8,26.7,16.2,55.2,16.2,83.7C477.9,284.6,472.4,313,461.6,339.7z"/>
	</g>
</g>
<g>
	<g>
		<path d="M356.2,183.6c9.2,0,16.7-7.5,16.7-16.7v-33.4c0-4.4-1.8-8.7-4.9-11.8s-7.4-4.9-11.8-4.9H155.8c-6.4,0-12.3,3.7-15.1,9.6
			c-2.8,5.8-1.9,12.7,2.2,17.7L234.4,256l-91.6,111.9c-4.1,5-4.9,11.9-2.2,17.7s8.7,9.6,15.1,9.6h200.5c4.4,0,8.7-1.8,11.8-4.9
			s4.9-7.4,4.9-11.8v-33.4c0-9.2-7.5-16.7-16.7-16.7s-16.7,7.5-16.7,16.7v16.7H191l77.9-95.2c5-6.2,5-15,0-21.2L191,150.2h148.5
			v16.7C339.5,176.1,347,183.6,356.2,183.6z"/>
	</g>
</g>
<g>
	<g>
		<path d="M368.3,256l13.5-13.5c4.1-4.1,4.1-10.7,0-14.8c-4.1-4.1-10.7-4.1-14.8,0l-13.5,13.5L340,227.7c-4.1-4.1-10.7-4.1-14.8,0
			c-4.1,4.1-4.1,10.7,0,14.8l13.5,13.5l-13.5,13.5c-4.1,4.1-4.1,10.7,0,14.8c4.1,4.1,10.7,4.1,14.8,0l13.5-13.5l13.5,13.5
			c4.1,4.1,10.7,4.1,14.8,0c4.1-4.1,4.1-10.7,0-14.8L368.3,256z"/>
	</g>
</g>
</svg>
